<?xml version="1.0" encoding="UTF-8" standalone="no"?>
<!-- Created with Inkscape (http://www.inkscape.org/) -->

<svg
   xmlns:dc="http://purl.org/dc/elements/1.1/"
   xmlns:cc="http://creativecommons.org/ns#"
   xmlns:rdf="http://www.w3.org/1999/02/22-rdf-syntax-ns#"
   xmlns:svg="http://www.w3.org/2000/svg"
   xmlns="http://www.w3.org/2000/svg"
   xmlns:sodipodi="http://sodipodi.sourceforge.net/DTD/sodipodi-0.dtd"
   xmlns:inkscape="http://www.inkscape.org/namespaces/inkscape"
   width="250"
   height="336"
   viewBox="0 0 250 336"
   id="svg4245"
   version="1.1"
   inkscape:version="0.91 r13725"
   sodipodi:docname="lemann.svg">
  <defs
     id="defs4247">
    <clipPath
       id="clipPath4807"
       clipPathUnits="userSpaceOnUse">
      <path
         inkscape:connector-curvature="0"
         id="path4809"
         d="m 0,595.28 841.89,0 L 841.89,0 0,0 0,595.28 Z" />
    </clipPath>
    <clipPath
       id="clipPath5041"
       clipPathUnits="userSpaceOnUse">
      <path
         inkscape:connector-curvature="0"
         id="path5043"
         d="M 0,800 800,800 800,0 0,0 0,800 Z" />
    </clipPath>
    <clipPath
       id="clipPath5177"
       clipPathUnits="userSpaceOnUse">
      <path
         inkscape:connector-curvature="0"
         id="path5179"
         d="M 0,800 800,800 800,0 0,0 0,800 Z" />
    </clipPath>
  </defs>
  <sodipodi:namedview
     id="base"
     pagecolor="#ffffff"
     bordercolor="#666666"
     borderopacity="1.0"
     inkscape:pageopacity="0.0"
     inkscape:pageshadow="2"
     inkscape:zoom="0.7"
     inkscape:cx="308.44854"
     inkscape:cy="448.90111"
     inkscape:document-units="px"
     inkscape:current-layer="layer1"
     showgrid="false"
     units="px"
     inkscape:window-width="1920"
     inkscape:window-height="1017"
     inkscape:window-x="-8"
     inkscape:window-y="-8"
     inkscape:window-maximized="1" />
  <metadata
     id="metadata4250">
    <rdf:RDF>
      <cc:Work
         rdf:about="">
        <dc:format>image/svg+xml</dc:format>
        <dc:type
           rdf:resource="http://purl.org/dc/dcmitype/StillImage" />
        <dc:title></dc:title>
      </cc:Work>
    </rdf:RDF>
  </metadata>
  <g
     inkscape:label="Camada 1"
     inkscape:groupmode="layer"
     id="layer1"
     transform="translate(0,-716.36216)">
    <g
       transform="matrix(0.47389403,0,0,-0.47323989,-64.557636,1073.6581)"
       inkscape:label="03.RGB - Fundação Lemann (Branco)"
       id="g5035"
       style="fill:#215732;fill-opacity:1">
      <g
         id="g5037"
         style="fill:#215732;fill-opacity:1">
        <g
           clip-path="url(#clipPath5041)"
           id="g5039"
           style="fill:#215732;fill-opacity:1">
          <g
             transform="translate(630.5966,328.4075)"
             id="g5045"
             style="fill:#215732;fill-opacity:1">
            <path
               inkscape:connector-curvature="0"
               id="path5047"
               style="fill:#215732;fill-opacity:1;fill-rule:nonzero;stroke:none"
               d="m 0,0 c 0,0 -161.608,-55.584 -367.644,7.749 0,0 -42.815,15.616 -22.327,12.95 C -369.49,17.946 -226.92,-32.967 0.036,39.389 0.036,39.389 6.412,27.461 0,0" />
          </g>
          <g
             transform="translate(609.1037,368.0413)"
             id="g5049"
             style="fill:#215732;fill-opacity:1">
            <path
               inkscape:connector-curvature="0"
               id="path5051"
               style="fill:#215732;fill-opacity:1;fill-rule:nonzero;stroke:none"
               d="m 0,0 c 0,0 -165.353,-61.325 -348.62,-20.689 0,0 -35.598,11.024 -18.716,9.681 16.82,-1.429 183.425,-25.188 365.758,43.157 0,0 5.671,-9.412 1.578,-32.149" />
          </g>
          <g
             transform="translate(589.3185,401.1898)"
             id="g5053"
             style="fill:#215732;fill-opacity:1">
            <path
               inkscape:connector-curvature="0"
               id="path5055"
               style="fill:#215732;fill-opacity:1;fill-rule:nonzero;stroke:none"
               d="m 0,0 c 0,0 -147.295,-60.713 -323.364,-43.402 0,0 -35.934,3.064 -19.054,2.826 16.907,-0.139 179.433,-15.713 340.37,61.065 C -2.048,20.489 0,18.273 0,0" />
          </g>
          <g
             transform="translate(180.3846,750.4119)"
             id="g5057"
             style="fill:#215732;fill-opacity:1">
            <path
               inkscape:connector-curvature="0"
               id="path5059"
               style="fill:#215732;fill-opacity:1;fill-rule:nonzero;stroke:none"
               d="m 0,0 c 0,0 -44.367,-164.989 32.957,-366.228 0,0 18.549,-41.655 14.414,-21.42 -4.103,20.252 -64.645,159.003 -8.096,390.374 0,0 -12.3,5.646 -39.275,-2.726" />
          </g>
          <g
             transform="translate(221.4458,731.6854)"
             id="g5061"
             style="fill:#215732;fill-opacity:1">
            <path
               inkscape:connector-curvature="0"
               id="path5063"
               style="fill:#215732;fill-opacity:1;fill-rule:nonzero;stroke:none"
               d="m 0,0 c 0,0 -49.87,-169.119 3.281,-349.156 0,0 13.416,-34.8 10.873,-18.065 -2.526,16.708 -37.68,181.323 17.989,367.816 0,0 -9.808,5.092 -32.143,-0.595" />
          </g>
          <g
             transform="translate(161.734,217.6755)"
             id="g5065"
             style="fill:#215732;fill-opacity:1">
            <path
               inkscape:connector-curvature="0"
               id="path5067"
               style="fill:#215732;fill-opacity:1;fill-rule:nonzero;stroke:none"
               d="m 0,0 0,-54.344 -15.673,0 0,54.344 -9.833,0 0,11.299 9.833,0 0,7.375 c -0.158,9.357 -0.158,19.567 21.084,19.567 3.114,0 6.017,-0.278 8.885,-0.486 l 0,-13.384 c -1.308,0.268 -2.751,0.387 -4.991,0.387 -4.178,0 -6.67,-0.956 -8.231,-3.282 C 0.546,20.606 0,18.634 0,16.596 l 0,-5.297 14.296,0 L 14.296,0 0,0 Z" />
          </g>
          <g
             transform="translate(241.7674,228.8254)"
             id="g5069"
             style="fill:#215732;fill-opacity:1">
            <path
               inkscape:connector-curvature="0"
               id="path5071"
               style="fill:#215732;fill-opacity:1;fill-rule:nonzero;stroke:none"
               d="m 0,0 0,-65.493 -15.733,0 0,6.729 c -2.717,-2.66 -9.178,-8.271 -21.193,-8.271 -10.764,0 -15.864,4.589 -18.213,7.583 -4.456,5.638 -4.456,11.828 -4.456,21.671 l 0,37.781 15.84,0 0,-37.579 c 0,-2.617 0,-4.867 0.52,-6.561 1.687,-5.73 6.419,-8.255 12.217,-8.255 6.493,0 10.563,3.563 12.669,6.928 2.348,4.331 2.483,8.55 2.616,17.711 L -15.733,0 0,0 Z" />
          </g>
          <g
             transform="translate(256.0041,228.8254)"
             id="g5073"
             style="fill:#215732;fill-opacity:1">
            <path
               inkscape:connector-curvature="0"
               id="path5075"
               style="fill:#215732;fill-opacity:1;fill-rule:nonzero;stroke:none"
               d="m 0,0 15.866,0 0,-7.719 c 0.755,1.175 2.341,3.246 5.084,5.158 3.911,2.829 9.926,4.533 15.061,4.533 7.457,0 13.876,-3.398 17.123,-7.878 4.07,-5.472 4.07,-12.519 4.07,-21.009 l 0,-38.578 -15.555,0 0,33.41 c 0,4.873 0,8.112 -0.555,9.949 -1.417,5.783 -5.629,8.751 -10.704,8.751 -5.127,0 -9.826,-2.968 -12.065,-7.315 -2.459,-4.808 -2.459,-11.462 -2.459,-16.345 l 0,-28.45 L 0,-65.493 0,0 Z" />
          </g>
          <g
             transform="translate(386.2503,255.8071)"
             id="g5077"
             style="fill:#215732;fill-opacity:1">
            <path
               inkscape:connector-curvature="0"
               id="path5079"
               style="fill:#215732;fill-opacity:1;fill-rule:nonzero;stroke:none"
               d="m 0,0 0,-92.475 -15.57,0 0,6.326 c -4.851,-5.899 -11.412,-8.222 -18.183,-8.222 -15.58,0 -29.079,11.669 -29.079,33.241 0,19.458 10.973,36.11 29.726,36.11 6.392,0 12.527,-1.819 17.536,-7.331 L -15.57,0 0,0 Z m -19.23,-45.549 c -2.34,3.48 -6.283,5.939 -11.527,5.939 -10.614,0 -15.739,-9.506 -15.739,-19.875 0,-1.148 0.167,-20.808 15.461,-20.808 8.123,0 15.465,6.068 15.356,20.186 -0.161,4.205 -0.664,10.237 -3.551,14.558" />
          </g>
          <g
             transform="translate(398.8113,209.5958)"
             id="g5081"
             style="fill:#215732;fill-opacity:1">
            <path
               inkscape:connector-curvature="0"
               id="path5083"
               style="fill:#215732;fill-opacity:1;fill-rule:nonzero;stroke:none"
               d="m 0,0 c 0.268,3.219 0.536,5.982 2.609,9.78 6.319,11.412 21.909,11.412 26.055,11.412 6.31,0 13.876,-0.837 19.666,-4.229 7.703,-4.741 7.819,-10.855 7.819,-17.955 l 0,-34.615 c 0,-4.96 0,-6.729 2.888,-10.657 l -18.558,0 c -0.119,1.585 -0.387,4.245 -0.387,5.128 -3.441,-2.888 -10.372,-6.68 -19.382,-6.68 -14.819,0 -23.723,9.205 -23.723,20.454 0,3.282 0.806,6.21 2.106,8.844 4.707,9.506 14.775,11.52 21.058,12.788 13.496,2.733 14.538,2.935 20.328,4.738 0,3.341 -0.288,9.995 -11.143,9.995 C 22.775,9.003 19.231,6.945 17.703,4.798 15.999,2.726 16.118,0.87 16.118,-0.992 L 0,0 Z m 40.479,-13.601 c -3.173,-1.628 -6.73,-2.753 -13.761,-3.977 -5.621,-0.771 -13.085,-2.082 -13.085,-9.003 0,-5.142 4.328,-7.736 10.617,-7.736 7.971,0 13.592,3.676 15.289,7.604 0.94,1.978 0.94,3.924 0.94,5.905 l 0,7.207 z" />
          </g>
          <g
             transform="translate(511.173,205.5861)"
             id="g5085"
             style="fill:#215732;fill-opacity:1">
            <path
               inkscape:connector-curvature="0"
               id="path5087"
               style="fill:#215732;fill-opacity:1;fill-rule:nonzero;stroke:none"
               d="m 0,0 c -1.208,4.377 -5.688,11.206 -14.816,11.206 -9.059,0 -16.258,-7.196 -16.258,-20.311 0,-11.796 6.259,-20.438 16.526,-20.438 9.936,0 13.727,7.617 15.808,12.844 l 13.39,-7.037 c -0.671,-2.005 -2.081,-6.075 -6.462,-10.64 -6.676,-7.223 -13.068,-8.206 -19.864,-9.42 l -3.392,-4.424 c 5.605,0.371 13.208,-1.902 13.208,-8.255 0,-10.127 -15.944,-10.127 -20.172,-10.127 -2.783,0 -4.027,0.142 -5.486,0.311 l 0,4.053 c 0.907,-0.212 1.191,-0.212 2.081,-0.212 3.524,0 8.391,0.354 8.391,3.316 0,2.901 -4.046,3.179 -8.626,3.179 -0.824,0 -1.694,0 -2.617,-0.142 l 0,1.819 10.085,10.482 c -6.713,1.214 -13.476,2.366 -20.087,9.506 -5.571,6.25 -9.009,15.083 -9.009,24.791 0,20.053 14.412,34.7 33.139,34.7 16.345,0 24.867,-10.981 28.14,-18.567 L 0,0 Z" />
          </g>
          <g
             transform="translate(530.0187,209.5958)"
             id="g5089"
             style="fill:#215732;fill-opacity:1">
            <path
               inkscape:connector-curvature="0"
               id="path5091"
               style="fill:#215732;fill-opacity:1;fill-rule:nonzero;stroke:none"
               d="m 0,0 c 0.218,3.219 0.47,5.982 2.567,9.78 6.277,11.412 21.897,11.412 26.042,11.412 6.293,0 13.893,-0.837 19.667,-4.229 7.702,-4.741 7.854,-10.855 7.854,-17.955 l 0,-34.615 c 0,-4.96 0,-6.729 2.852,-10.657 l -18.578,0 c -0.099,1.585 -0.367,4.245 -0.367,5.128 -3.408,-2.888 -10.336,-6.68 -19.398,-6.68 -14.75,0 -23.643,9.205 -23.643,20.454 0,3.282 0.754,6.21 2.081,8.844 4.698,9.506 14.783,11.52 21.026,12.788 13.542,2.733 14.581,2.935 20.301,4.738 0,3.341 -0.268,9.995 -11.123,9.995 C 22.72,9.003 19.213,6.945 17.635,4.798 15.941,2.726 16.06,0.87 16.06,-0.992 L 0,0 Z m 53.258,46.211 c -0.165,-0.83 -0.771,-4.857 -1.039,-5.78 -1.31,-4.48 -5.035,-10.346 -12.083,-10.346 -3.927,0 -7.97,1.711 -11.375,3.014 -2.501,0.88 -5.336,2.121 -7.57,2.121 -2.782,0 -4.092,-1.862 -4.714,-5.025 l -10.217,0 c 0.4,3.784 0.939,6.822 3.136,10.236 0.924,1.4 4.096,6.26 10.472,6.26 3.289,0 6.928,-1.175 9.294,-2.108 3.004,-1.098 7.216,-2.752 9.181,-2.752 0.384,0 1.257,0 2.465,0.698 1.476,0.781 1.562,1.3 2.382,3.682 l 10.068,0 z M 40.404,-13.601 c -3.103,-1.628 -6.66,-2.753 -13.707,-3.977 -5.688,-0.771 -13.105,-2.082 -13.105,-9.003 0,-5.142 4.327,-7.736 10.587,-7.736 7.987,0 13.608,3.676 15.322,7.604 0.903,1.978 0.903,3.924 0.903,5.905 l 0,7.207 z" />
          </g>
          <g
             transform="translate(630.5301,161.436)"
             id="g5093"
             style="fill:#215732;fill-opacity:1">
            <path
               inkscape:connector-curvature="0"
               id="path5095"
               style="fill:#215732;fill-opacity:1;fill-rule:nonzero;stroke:none"
               d="m 0,0 c -20.437,0 -34.045,14.886 -34.045,34.886 0,20.06 13.876,34.465 33.373,34.465 18.191,0 33.781,-12.728 33.914,-34.465 C 33.242,14.498 19.769,0 0,0 m -0.771,55.197 c -9.817,0 -16.88,-7.868 -16.88,-19.884 0,-13.542 8.205,-20.974 17.651,-20.974 11.411,0 17.149,9.999 16.748,20.891 -0.251,10.872 -6.544,19.967 -17.519,19.967" />
          </g>
          <path
             inkscape:connector-curvature="0"
             id="path5097"
             style="fill:#215732;fill-opacity:1;fill-rule:nonzero;stroke:none"
             d="m 213.391,46.979 -15.807,0 0,92.435 15.807,0 0,-92.435 z" />
          <g
             transform="translate(289.1794,61.6954)"
             id="g5099"
             style="fill:#215732;fill-opacity:1">
            <path
               inkscape:connector-curvature="0"
               id="path5101"
               style="fill:#215732;fill-opacity:1;fill-rule:nonzero;stroke:none"
               d="m 0,0 c -8.079,-10.899 -18.593,-16.695 -31.892,-16.695 -17.182,0 -33.651,10.872 -33.651,34.968 0,22.026 14.127,34.416 32.57,34.416 17.266,0 24.44,-10.326 25.765,-12.275 5.411,-7.583 6.553,-18.961 6.687,-25.522 l -48.41,0 c 1.828,-10.379 8.239,-16.285 18.558,-16.285 10.707,0 15.044,6.336 17.023,9.062 L 0,0 Z m -17.822,26.436 c -1.417,10.127 -7.684,13.753 -14.615,13.753 -8.406,0 -14.161,-4.91 -15.999,-13.753 l 30.614,0 z" />
          </g>
          <g
             transform="translate(298.4666,112.4988)"
             id="g5103"
             style="fill:#215732;fill-opacity:1">
            <path
               inkscape:connector-curvature="0"
               id="path5105"
               style="fill:#215732;fill-opacity:1;fill-rule:nonzero;stroke:none"
               d="m 0,0 15.597,0 0,-7.395 c 5.244,6.565 14.523,9.291 20.665,9.291 6.157,0 13.885,-2.349 18.197,-10.068 2.626,3.672 9.457,10.068 20.975,10.068 6.528,0 12.803,-1.863 17.266,-6.621 5.252,-5.78 5.069,-12.745 5.069,-19.55 l 0,-41.245 -15.555,0 0,36.163 c 0,6.097 0.923,16.503 -10.991,16.503 -4.967,0 -9.003,-2.812 -11.109,-6.167 -3.029,-4.85 -3.414,-10.068 -3.414,-15.732 l 0,-30.767 -15.597,0 0,36.513 c 0,4.732 0,6.412 -0.53,8.331 -1.131,4.355 -4.564,7.822 -10.068,7.822 -4.665,0 -9.287,-2.812 -12.04,-7.643 -2.742,-5.095 -2.868,-11.209 -2.868,-17.671 l 0,-27.352 L 0,-65.52 0,0 Z" />
          </g>
          <g
             transform="translate(408.4278,93.2095)"
             id="g5107"
             style="fill:#215732;fill-opacity:1">
            <path
               inkscape:connector-curvature="0"
               id="path5109"
               style="fill:#215732;fill-opacity:1;fill-rule:nonzero;stroke:none"
               d="m 0,0 c 0.265,3.219 0.536,5.972 2.624,9.807 6.326,11.378 21.893,11.378 26.038,11.378 6.293,0 13.893,-0.758 19.666,-4.162 7.703,-4.758 7.819,-10.899 7.819,-17.979 l 0,-34.667 c 0,-4.97 0,-6.654 2.888,-10.608 l -18.578,0 c -0.099,1.605 -0.367,4.205 -0.367,5.145 -3.391,-2.889 -10.385,-6.73 -19.398,-6.73 -14.789,0 -23.706,9.248 -23.706,20.438 0,3.288 0.824,6.302 2.107,8.952 4.732,9.347 14.787,11.461 21.112,12.603 13.424,2.802 14.515,3.097 20.252,4.867 0,3.272 -0.251,10.015 -11.123,10.015 C 22.823,9.059 19.266,6.928 17.688,4.84 16.01,2.76 16.093,0.913 16.093,-0.956 L 0,0 Z m 40.457,-13.684 c -3.153,-1.519 -6.66,-2.694 -13.757,-3.868 -5.571,-0.84 -13.055,-2.075 -13.055,-9.019 0,-5.135 4.314,-7.769 10.604,-7.769 7.97,0 13.608,3.683 15.355,7.643 0.853,1.955 0.853,3.907 0.853,5.856 l 0,7.157 z" />
          </g>
          <g
             transform="translate(478.6031,112.4988)"
             id="g5111"
             style="fill:#215732;fill-opacity:1">
            <path
               inkscape:connector-curvature="0"
               id="path5113"
               style="fill:#215732;fill-opacity:1;fill-rule:nonzero;stroke:none"
               d="m 0,0 15.858,0 0,-7.845 c 0.754,1.248 2.349,3.345 5.069,5.152 3.944,2.892 9.998,4.589 15.067,4.589 7.484,0 13.893,-3.365 17.182,-7.812 4.029,-5.538 4.029,-12.576 4.029,-21.135 l 0,-38.469 -15.573,0 0,33.367 c 0,4.86 0,8.166 -0.553,9.985 -1.409,5.665 -5.571,8.685 -10.69,8.685 -5.085,0 -9.783,-3.02 -12.013,-7.242 -2.518,-4.867 -2.518,-11.527 -2.518,-16.401 l 0,-28.394 L 0,-65.52 0,0 Z" />
          </g>
          <g
             transform="translate(549.5854,112.4988)"
             id="g5115"
             style="fill:#215732;fill-opacity:1">
            <path
               inkscape:connector-curvature="0"
               id="path5117"
               style="fill:#215732;fill-opacity:1;fill-rule:nonzero;stroke:none"
               d="m 0,0 15.822,0 0,-7.845 c 0.754,1.248 2.365,3.345 5.085,5.152 3.927,2.892 9.949,4.589 15.067,4.589 7.418,0 13.877,-3.365 17.149,-7.812 4.046,-5.538 4.046,-12.576 4.046,-21.135 l 0,-38.469 -15.557,0 0,33.367 c 0,4.86 0,8.166 -0.552,9.985 -1.426,5.665 -5.622,8.685 -10.69,8.685 -5.152,0 -9.85,-3.02 -12.03,-7.242 -2.518,-4.867 -2.518,-11.527 -2.518,-16.401 l 0,-28.394 L 0,-65.52 0,0 Z" />
          </g>
        </g>
      </g>
    </g>
  </g>
</svg>
