<?xml version="1.0" encoding="UTF-8" standalone="no"?>
<!-- Created with Inkscape (http://www.inkscape.org/) -->

<svg
   xmlns:dc="http://purl.org/dc/elements/1.1/"
   xmlns:cc="http://creativecommons.org/ns#"
   xmlns:rdf="http://www.w3.org/1999/02/22-rdf-syntax-ns#"
   xmlns:svg="http://www.w3.org/2000/svg"
   xmlns="http://www.w3.org/2000/svg"
   xmlns:sodipodi="http://sodipodi.sourceforge.net/DTD/sodipodi-0.dtd"
   xmlns:inkscape="http://www.inkscape.org/namespaces/inkscape"
   width="250"
   height="138"
   viewBox="0 0 250 138"
   id="svg4245"
   version="1.1"
   inkscape:version="0.91 r13725"
   sodipodi:docname="programae.svg">
  <defs
     id="defs4247">
    <clipPath
       id="clipPath4807"
       clipPathUnits="userSpaceOnUse">
      <path
         inkscape:connector-curvature="0"
         id="path4809"
         d="m 0,595.28 841.89,0 L 841.89,0 0,0 0,595.28 Z" />
    </clipPath>
  </defs>
  <sodipodi:namedview
     id="base"
     pagecolor="#ffffff"
     bordercolor="#666666"
     borderopacity="1.0"
     inkscape:pageopacity="0.0"
     inkscape:pageshadow="2"
     inkscape:zoom="0.35"
     inkscape:cx="-152.14286"
     inkscape:cy="520"
     inkscape:document-units="px"
     inkscape:current-layer="layer1"
     showgrid="false"
     units="px"
     inkscape:window-width="1920"
     inkscape:window-height="1017"
     inkscape:window-x="-8"
     inkscape:window-y="-8"
     inkscape:window-maximized="1" />
  <metadata
     id="metadata4250">
    <rdf:RDF>
      <cc:Work
         rdf:about="">
        <dc:format>image/svg+xml</dc:format>
        <dc:type
           rdf:resource="http://purl.org/dc/dcmitype/StillImage" />
        <dc:title></dc:title>
      </cc:Work>
    </rdf:RDF>
  </metadata>
  <g
     inkscape:label="Camada 1"
     inkscape:groupmode="layer"
     id="layer1"
     transform="translate(0,-914.36216)">
    <g
       id="g4999"
       transform="matrix(0.294306,0,0,0.29418608,50.147059,804.50773)">
      <g
         transform="matrix(1.25,0,0,-1.25,576.81876,525.41359)"
         id="g4811">
        <path
           inkscape:connector-curvature="0"
           id="path4813"
           style="fill:#f26538;fill-opacity:1;fill-rule:nonzero;stroke:none"
           d="M 0,0 C 0.151,-1.293 0.312,-2.706 0.443,-4.164 0.245,-2.991 0.015,-1.805 -0.25,-0.617 -0.09,-0.23 0,0 0,0 m -6.086,-53.778 c -0.048,-0.069 -0.08,-0.139 -0.123,-0.208 0.128,0.27 0.255,0.551 0.392,0.848 -0.071,-0.221 -0.151,-0.432 -0.269,-0.64 m -48.698,34.871 c 0.004,0.004 0.004,0.004 0.013,0.012 0.08,0.028 0.005,0 -0.013,-0.012 m -73.668,-37.854 c 0,0 0.241,0.577 0.57,1.373 -0.127,-0.463 -0.301,-0.924 -0.57,-1.373 M -178.708,0.85 c 0.174,0.026 0.342,0.059 0.517,0.103 -0.106,-0.131 -0.275,-0.179 -0.517,-0.103 M 81.473,-32.107 c -0.748,9.608 -2.683,20.454 -6.084,31.53 -3.491,11.035 -8.369,22.306 -14.522,32.673 -1.571,2.563 -3.143,5.127 -4.709,7.68 -1.675,2.468 -3.378,4.897 -5.104,7.266 -1.708,2.393 -3.543,4.628 -5.341,6.853 -0.913,1.09 -1.819,2.179 -2.725,3.263 l -0.676,0.801 -0.645,0.711 -1.293,1.413 c -1.72,1.871 -3.437,3.685 -5.141,5.436 -1.491,1.441 -2.911,2.758 -4.339,4.072 -0.708,0.653 -1.413,1.293 -2.11,1.929 -0.709,0.597 -1.411,1.186 -2.104,1.771 -1.396,1.141 -2.751,2.256 -4.067,3.333 -10.59,8.356 -19.298,12.527 -21.848,13.32 0,0 -5.761,4.175 -17.341,5.767 -2.061,0.289 -5.322,2.323 -7.557,2.163 -0.957,-0.068 -9.48,3.09 -12.342,4.32 -2.869,1.177 -3.902,1.258 -6.787,2.312 -2.884,1.047 -6.564,2.176 -9.565,2.934 -1.486,0.348 -26.316,7.769 -33.319,8.943 -6.633,1.119 -23.038,3.979 -33.139,4.822 -10.096,0.844 -31.641,0.06 -31.641,0.06 -4.039,0.442 -27.834,-1.453 -29.206,-1.696 -1.397,-0.231 -2.902,-0.52 -4.552,-0.834 -6.561,-1.255 -9.195,-0.257 -16.783,-2.153 -1.158,-0.288 -7.483,-0.924 -8.631,-1.208 -3.033,-0.004 -5.843,0.063 -10.279,0 -8.012,-0.152 -17.193,0.05 -27.87,-0.807 -2.244,0.456 -8.137,0.687 -10.471,1.159 -3.054,0.631 -4.078,0 -6.891,0.635 -2.811,0.638 -5.53,0.093 -7.78,0.603 -4.491,1.013 -8.136,0.995 -8.136,0.995 0,0 -7.255,-0.394 -18.142,-0.992 -10.992,-0.444 -25.643,-1.043 -40.294,-1.64 -7.382,-0.259 -14.761,-0.516 -21.678,-0.76 -3.665,-0.129 -7.214,-0.256 -10.576,-0.376 -3.973,-0.153 -7.66,-0.419 -11.046,-0.72 -6.768,-0.619 -12.312,-1.369 -16.178,-1.992 -1.938,-0.283 -3.449,-0.559 -4.482,-0.742 -1.033,-0.182 -1.585,-0.275 -1.585,-0.275 0,0 0.014,-0.082 -0.844,-1.004 -0.851,-0.934 -1.537,-0.72 -3.115,-1.327 -1.066,-0.412 -2.109,-0.236 -3.854,-0.936 -1.17,-0.467 -3.133,-1.217 -3.133,-1.217 -8.884,-1.048 -12.871,-3.248 -20.594,-4.781 -7.723,-1.543 -15.558,-4.581 -23.382,-8.29 -7.837,-3.714 -15.669,-8.087 -23.624,-12.376 -7.965,-4.306 -17.206,-7.816 -24.175,-14.259 0,0 -8.704,-6.269 -10.231,-8.361 -1.198,-1.084 -2.394,-2.286 -3.582,-3.492 l -1.779,-1.814 c -0.604,-0.625 -1.142,-1.151 -1.841,-1.928 -1.313,-1.447 -2.622,-2.915 -3.915,-4.394 l -0.968,-1.11 -1.018,-1.238 -2.02,-2.519 c -2.707,-3.342 -5.194,-6.921 -7.643,-10.522 -1.189,-1.829 -2.321,-3.706 -3.453,-5.583 -0.56,-0.947 -1.132,-1.88 -1.666,-2.846 l -1.548,-2.924 c -8.286,-15.576 -14.023,-32.921 -16.031,-50.831 -0.232,-2.238 -0.439,-4.481 -0.625,-6.72 -0.18,-2.234 -0.182,-4.494 -0.248,-6.74 l -0.057,-3.368 c 0,-1.116 0.066,-2.242 0.107,-3.358 0.099,-2.243 0.186,-4.483 0.358,-6.71 0.828,-8.909 2.494,-17.646 4.881,-26.063 2.529,-8.368 5.704,-16.417 9.599,-23.947 0.95,-1.893 2.026,-3.698 3.059,-5.534 1.039,-1.825 2.097,-3.63 3.258,-5.354 1.139,-1.742 2.296,-3.465 3.461,-5.171 1.212,-1.662 2.453,-3.293 3.701,-4.919 l 1.88,-2.41 1.972,-2.315 c 0.415,-0.481 0.845,-0.951 1.26,-1.43 l 2.311,-1.587 -0.04,-0.451 c -0.339,-2.897 -0.858,-5.899 -1.455,-8.832 -0.519,-1.644 -0.736,-2.798 -0.856,-3.937 l -0.153,-0.607 0.138,0.487 c -0.146,-1.123 -0.195,-2.246 -0.549,-3.827 -0.59,-2.744 -1.519,-5.26 -2.534,-8.615 l -0.714,-2.516 c -2.104,-4.131 -4.207,-8.669 -6.174,-13.119 -0.811,-1.833 -1.934,-4.265 -2.569,-6.01 -0.474,-1.346 -0.696,-3.274 -1.158,-4.372 -0.748,-1.758 -1.755,-2.76 -2.72,-4.438 -1.62,-2.867 -1.352,-3.353 -2.505,-6.032 -1.899,-4.357 -4.857,-8.631 -7.348,-12.751 -2.345,-3.934 -7.794,-9.278 -9.724,-12.856 l -0.078,-0.138 c -2.248,-2.293 -4.608,-4.566 -6.975,-6.82 l -1.765,-1.698 c -0.528,-0.476 0.078,0.141 -0.583,-0.417 l -3.525,-2.749 c -2.62,-1.605 -5.304,-3.45 -7.574,-5.416 -2.717,-1.897 -5.648,-3.935 -7.61,-5.715 -1.986,-1.712 -2.885,-3.278 -1.873,-4.17 0.207,-0.169 0.491,-0.315 0.844,-0.419 l 0.116,-0.082 c 0.066,-0.339 0.113,-0.673 0.135,-1.033 0.032,-0.408 1.056,-0.211 1.793,0.152 l 0.337,0.099 c 0.874,-0.078 2.073,0.084 3.552,0.572 0.323,0.117 0.644,0.272 0.909,0.437 0.57,0.127 1.13,0.286 1.696,0.463 0.177,-0.03 0.408,0.01 0.672,0.103 l 0.833,0.333 c 0.431,0 0.965,0.113 1.611,0.366 0.731,-0.232 1.477,-0.434 2.312,-0.618 0.151,-0.131 0.471,-0.264 1.014,-0.377 l 1.592,-0.317 c 0.647,-0.313 1.645,-0.606 3.234,-0.839 2.062,-0.281 4.28,-0.288 6.349,-0.077 l 0.743,-0.004 c 0.915,-0.014 1.842,0.02 2.769,0.075 0.802,-0.046 1.402,-0.008 2.831,0.152 0.382,0.014 0.719,0.17 1.085,0.263 l 0.682,0.199 1.323,0.434 c 0.875,0.307 1.767,0.598 2.595,0.973 2.378,0.845 4.704,1.755 6.889,2.721 1.84,0.621 3.658,1.465 5.397,2.284 l 1.227,0.622 c 0.007,0.024 -0.007,0.043 -0.043,0.043 l 2.816,1.336 c 0.498,0.255 0.85,0.471 1.083,0.65 3.244,1.557 6.315,3.249 9.014,4.867 l 1.222,0.526 c 4.804,2.18 9.799,4.836 14.458,7.634 3.551,2.001 6.978,4.199 10.342,6.492 1.994,1.188 3.265,2.151 4.397,3.191 l 0.673,0.513 -0.557,-0.411 3.798,3.484 c 2.835,2.423 5.602,4.638 8.969,7.777 l 2.404,2.43 c 4.805,3.638 9.627,8.087 13.972,12.498 1.847,1.81 4.308,4.403 5.879,6.327 1.191,1.477 2.387,3.725 3.396,4.938 1.3,1.583 2.558,2.558 3.917,3.88 1.504,-0.359 3.014,-0.696 4.548,-0.988 2.901,-0.649 5.909,-1.064 8.903,-1.479 1.483,-0.234 3.033,-0.335 4.557,-0.473 1.484,-0.108 2.963,-0.217 4.435,-0.334 7.907,-0.481 15.701,-1.213 23.378,-2.226 1.787,-0.516 4.521,-0.355 7.124,-0.805 1.974,-0.343 4.543,-0.423 8.099,-0.568 5.769,-0.294 10.386,0.761 14.198,0.377 5.435,0.384 8.932,-0.888 13.934,0.533 4.997,1.423 9.949,2.554 14.959,3.307 5.004,0.767 10.013,1.232 14.994,1.52 2.491,0.136 4.981,0.235 7.447,0.31 2.451,0.062 4.886,0.127 7.304,0.189 l 2.922,0.052 4.289,0.189 c 0.571,-0.09 1.305,0.146 2.763,-0.281 6.286,0.953 8.588,0.196 15.52,-0.459 6.878,-0.662 12.615,0.115 18.894,-0.783 l 2.407,-0.411 c 4.538,0.213 9.059,0.476 13.559,0.795 4.463,0.281 8.889,0.599 13.308,0.964 4.418,0.358 8.822,0.756 13.212,1.187 2.192,0.22 4.383,0.441 6.57,0.662 2.172,0.198 4.338,0.404 6.504,0.605 8.639,0.802 17.248,1.689 25.833,2.58 8.547,0.774 17.011,1.385 25.512,2.02 l 6.373,0.452 3.186,0.213 3.02,0.125 6.043,0.207 6.238,0.055 c 2.055,0.023 4.218,-0.009 6.354,-0.037 l 6.464,-0.133 c 4.417,-0.123 8.78,-0.303 13.362,-0.513 18.092,-0.872 37.54,-2.374 58.924,-3.016 2.538,-0.491 5.139,-0.787 7.749,-1.024 1.309,-0.108 2.624,-0.196 3.946,-0.257 1.318,-0.054 2.693,0.007 4.052,0.047 2.722,0.097 5.468,0.292 8.224,0.567 2.808,0.38 5.654,0.913 8.496,1.479 1.423,0.3 2.841,0.589 4.275,0.939 1.448,0.42 2.905,0.843 4.365,1.265 1.448,0.454 2.906,0.906 4.368,1.367 l 2.19,0.712 1.089,0.368 1.18,0.459 c 3.142,1.245 6.285,2.559 9.417,3.924 l 2.352,1.029 3.07,1.626 c 2.055,1.098 4.125,2.205 6.19,3.314 2.061,1.102 4.125,2.203 6.194,3.312 l 1.549,0.827 1.467,1.003 2.931,2.015 c 1.95,1.335 3.906,2.67 5.864,4.013 1,0.625 1.892,1.432 2.813,2.193 l 2.752,2.297 c 1.826,1.541 3.689,3.032 5.502,4.591 1.721,1.678 3.433,3.376 5.128,5.093 l 2.533,2.586 c 0.844,0.858 1.602,1.824 2.401,2.737 1.581,1.847 3.148,3.717 4.697,5.598 0.807,0.905 1.454,1.974 2.182,2.96 l 2.147,3.01 2.156,3.005 c 0.718,1.005 1.302,2.126 1.958,3.175 1.269,2.154 2.624,4.251 3.869,6.434 L 66.646,-98 c 4.463,9.153 8.163,18.943 10.927,29.246 0.501,0.883 1.05,2.391 1.622,4.469 0.288,1.037 0.581,2.221 0.872,3.536 0.248,1.319 0.469,2.772 0.696,4.352 0.221,1.581 0.431,3.284 0.626,5.103 0.128,1.822 0.198,3.757 0.285,5.798 0.297,4.084 -0.013,8.576 -0.201,13.389" />
      </g>
      <g
         transform="matrix(1.25,0,0,-1.25,-40.38761,523.21746)"
         id="g4815">
        <path
           inkscape:connector-curvature="0"
           id="path4817"
           style="fill:#ffffff;fill-opacity:1;fill-rule:nonzero;stroke:none"
           d="M 0,0 C 0,-2.241 15.515,-2.401 19.032,1.439 21.113,3.676 22.07,14.712 19.513,17.592 16.314,22.07 -1.439,21.59 -0.637,19.351 -1.439,18.711 -0.637,6.398 0,0 m 3.038,-12.634 c -2.076,0 -0.797,-40.306 -2.558,-59.976 -0.799,-8.317 2.081,-23.99 -7.675,-20.631 -3.2,0.639 -3.36,4.156 -3.68,7.676 0.641,29.268 0,83.003 0,93.881 0,6.237 -1.119,20.31 1.759,20.95 3.199,1.76 26.388,1.12 33.906,-4.318 3.359,-2.398 3.998,-9.436 4.319,-13.114 0.64,-8.316 -0.96,-13.754 -6.237,-19.352 -4.319,-4.637 -19.834,-2.88 -19.834,-5.116" />
      </g>
      <g
         transform="matrix(1.25,0,0,-1.25,29.780265,535.21209)"
         id="g4819">
        <path
           inkscape:connector-curvature="0"
           id="path4821"
           style="fill:#ffffff;fill-opacity:1;fill-rule:nonzero;stroke:none"
           d="m 0,0 c 0,-2.242 15.513,-1.6 19.032,2.236 2.081,2.241 4.159,12.956 1.6,15.833 -3.199,4.48 -22.071,7.999 -21.272,5.76 C -1.439,23.189 -0.64,6.397 0,0 m 17.593,-12.156 c 3.68,-5.598 8.318,-11.675 9.917,-20.153 1.759,-9.594 1.918,-23.028 1.759,-34.065 0,-5.596 0.477,-11.834 -0.32,-12.473 -1.76,-3.36 -6.878,-6.076 -9.595,0 -1.44,3.517 0,4.958 -1.44,27.827 0,13.115 -1.76,22.872 -7.2,30.067 -2.235,3.199 -4.637,6.398 -10.073,5.598 0.319,-17.273 -0.802,-37.105 -0.802,-53.577 0,-14.074 -8.634,-17.592 -12.153,-10.557 -0.639,23.99 1.439,47.821 1.439,70.531 0,15.035 -2.558,43.822 2.241,42.702 1.918,2.72 30.383,3.039 37.903,-8.956 6.396,-10.394 3.837,-23.189 -2.879,-29.586 -2.399,-3.52 -6.716,-5.599 -8.797,-7.358" />
      </g>
      <g
         transform="matrix(1.25,0,0,-1.25,119.33839,508.22547)"
         id="g4823">
        <path
           inkscape:connector-curvature="0"
           id="path4825"
           style="fill:#ffffff;fill-opacity:1;fill-rule:nonzero;stroke:none"
           d="m 0,0 c -0.957,1.6 -4.476,3.839 -7.515,2.399 -7.516,-3.038 -6.238,-13.274 -5.917,-24.791 0.64,-14.234 -0.16,-30.705 -0.16,-43.821 0,-12.473 -3.999,-26.547 8.636,-26.708 6.395,0 4.16,14.876 5.277,20.632 2.242,11.675 2.56,57.097 2.081,62.374 C 2.081,-6.558 1.76,-3.838 0,0 m 12.156,-35.026 c 0.161,-7.356 0,-14.553 -0.639,-21.91 -0.321,-6.398 -1.278,-13.433 -1.438,-21.269 C 9.757,-85.724 8.8,-93.081 6.08,-97.238 c -1.921,-3.038 -6.397,-6.718 -9.757,-7.039 -7.515,-0.797 -13.113,3.199 -15.831,7.837 -1.6,2.561 -3.199,5.119 -3.52,8.798 -0.32,2.397 -0.641,6.556 -0.481,8.794 0.802,11.197 0.481,25.11 1.121,39.184 0.479,6.558 0,13.437 0,19.992 0,9.757 -0.161,19.193 3.038,24.95 1.759,3.039 5.277,6.717 8.796,7.357 9.918,1.759 15.514,-1.44 19.512,-7.357 0.799,-1.279 2.879,-11.997 2.879,-15.514 0,-7.197 0.319,-16.953 0.319,-24.79" />
      </g>
      <g
         transform="matrix(1.25,0,0,-1.25,187.51152,573.19797)"
         id="g4827">
        <path
           inkscape:connector-curvature="0"
           id="path4829"
           style="fill:#ffffff;fill-opacity:1;fill-rule:nonzero;stroke:none"
           d="m 0,0 c 0,2.399 -9.594,0.642 -9.594,3.359 0.319,1.439 0.158,3.838 0.797,5.277 0,3.359 19.675,1.12 18.871,-3.196 C 9.915,-6.719 10.878,-26.87 6.716,-39.183 4.958,-44.141 0.96,-50.218 -3.838,-51.498 c -3.839,-1.28 -11.517,-0.159 -12.796,2.558 -7.037,5.439 -7.515,27.829 -8.316,42.863 -0.959,47.019 -3.837,67.652 16.474,72.769 C -1.439,68.451 7.357,59.495 6.079,52.458 5.757,51.019 4.159,47.821 1.6,47.979 c -3.358,0.479 -4.478,8.317 -9.277,7.998 -4.479,-0.321 -6.398,-11.036 -7.036,-16.794 -0.801,-8.316 -0.321,-16.152 0,-23.029 0.32,-7.997 -0.321,-14.715 -0.16,-22.231 0.16,-11.356 1.117,-23.831 4.316,-33.426 0.642,-2.398 4.002,-4.478 6.88,-0.958 3.198,3.835 3.677,10.233 4.156,15.512 C 1.281,-16.313 2.559,0 0,0" />
      </g>
      <g
         transform="matrix(1.25,0,0,-1.25,236.08827,535.21209)"
         id="g4831">
        <path
           inkscape:connector-curvature="0"
           id="path4833"
           style="fill:#ffffff;fill-opacity:1;fill-rule:nonzero;stroke:none"
           d="m 0,0 c 0,-2.242 15.513,-1.6 19.03,2.236 2.082,2.241 4.162,12.956 1.599,15.833 -3.197,4.48 -22.07,7.999 -21.267,5.76 C -1.441,23.189 -0.638,6.397 0,0 m 17.591,-12.156 c 3.68,-5.598 8.319,-11.675 9.918,-20.153 1.759,-9.594 1.919,-23.028 1.759,-34.065 0,-5.596 0.479,-11.834 -0.32,-12.473 -1.76,-3.36 -6.876,-6.076 -9.597,0 -1.438,3.517 0,4.958 -1.438,27.827 0,13.115 -1.761,22.872 -7.199,30.067 -2.238,3.199 -4.636,6.398 -10.074,5.598 0.32,-17.273 -0.801,-37.105 -0.801,-53.577 0,-14.074 -8.635,-17.592 -12.154,-10.557 -0.638,23.99 1.437,47.821 1.437,70.531 0,15.035 -2.556,43.822 2.243,42.702 1.919,2.72 30.385,3.039 37.903,-8.956 6.399,-10.394 3.839,-23.189 -2.878,-29.586 -2.4,-3.52 -6.718,-5.599 -8.799,-7.358" />
      </g>
      <g
         transform="matrix(1.25,0,0,-1.25,318.65114,548.20771)"
         id="g4835">
        <path
           inkscape:connector-curvature="0"
           id="path4837"
           style="fill:#ffffff;fill-opacity:1;fill-rule:nonzero;stroke:none"
           d="m 0,0 c -1.119,-5.116 -1.6,-8.157 -2.397,-12.477 2.556,0 3.039,-1.117 5.917,0.481 C 3.52,-8.476 2.719,3.678 1.278,4.32 0.96,4.478 0.159,0.8 0,0 m 4.638,43.661 c 2.401,-1.599 3.199,-8.636 4.001,-13.435 4.156,-23.35 6.554,-49.258 12.633,-73.889 2.398,-9.596 5.437,-21.27 3.998,-25.748 -10.875,-6.716 -10.875,6.076 -13.435,17.591 -2.4,10.878 -3.518,20.314 -5.917,27.351 -2.398,-0.961 -6.876,-0.321 -9.757,-0.642 -1.917,-6.556 -3.356,-14.872 -4.318,-23.028 -0.959,-8.158 -1.119,-23.671 -3.358,-23.671 -2.559,-1.118 -6.236,-1.118 -7.517,0.481 -3.518,5.435 -1.918,12.954 -1.44,19.509 0.482,8.957 3.199,19.354 4.319,28.949 0.64,6.077 9.436,42.543 10.237,46.539 1.438,7.998 3.995,24.471 10.554,19.993" />
      </g>
      <g
         transform="matrix(1.25,0,0,-1.25,380.82514,489.83309)"
         id="g4839">
        <path
           inkscape:connector-curvature="0"
           id="path4841"
           style="fill:#ffffff;fill-opacity:1;fill-rule:nonzero;stroke:none"
           d="m 0,0 c 2.88,0 5.918,-14.073 7.036,-17.113 0.483,-1.121 1.44,-3.838 1.761,-4.956 1.117,-2.56 2.557,-7.997 3.837,-7.997 1.919,0 10.875,21.589 12.636,24.788 1.12,1.759 1.439,2.719 2.238,3.199 2.239,1.279 5.279,0.8 6.558,-1.119 1.439,-0.96 0.161,-8.317 0,-12.794 -0.96,-30.389 -1.439,-67.013 -1.6,-98.04 0,-3.36 -1.92,-4.478 -4.318,-4.959 -2.08,-0.637 -4.32,0.481 -5.118,1.921 -1.121,2.24 -0.159,9.114 -0.159,13.434 0,17.114 0.638,55.655 1.759,73.73 -1.6,-0.963 -1.6,-1.599 -7.039,-11.356 -3.836,-5.916 -3.997,-5.28 -5.436,-4.799 -3.358,0.64 -7.675,10.875 -8.317,12.957 -0.958,2.396 -0.958,2.396 -1.76,3.038 0,-7.198 -0.319,-10.715 -0.319,-16.155 0,-8.476 -0.319,-18.712 -0.799,-28.789 -0.481,-10.715 0.161,-21.268 -0.321,-30.065 -0.322,-4.959 0.482,-11.675 -3.038,-13.114 -2.081,-0.959 -4.158,-0.481 -4.959,1.279 -2.077,6.558 -0.957,14.394 -1.118,23.349 0,5.28 -0.642,10.714 -0.321,15.994 1.279,22.231 0.96,45.902 1.439,64.294 C -7.197,-6.078 -9.754,1.759 0,0" />
      </g>
      <g
         transform="matrix(1.25,0,0,-1.25,467.58539,548.20771)"
         id="g4843">
        <path
           inkscape:connector-curvature="0"
           id="path4845"
           style="fill:#ffffff;fill-opacity:1;fill-rule:nonzero;stroke:none"
           d="m 0,0 c -1.12,-5.116 -1.6,-8.157 -2.399,-12.477 2.559,0 3.039,-1.117 5.919,0.481 C 3.52,-8.476 2.717,3.678 1.278,4.32 0.958,4.478 0.16,0.8 0,0 m 4.638,43.661 c 2.399,-1.599 3.2,-8.636 3.999,-13.435 4.159,-23.35 6.555,-49.258 12.634,-73.889 2.4,-9.596 5.438,-21.27 3.998,-25.748 -10.875,-6.716 -10.875,6.076 -13.434,17.591 -2.399,10.878 -3.52,20.314 -5.918,27.351 -2.397,-0.961 -6.877,-0.321 -9.758,-0.642 -1.917,-6.556 -3.355,-14.872 -4.317,-23.028 -0.957,-8.158 -1.117,-23.671 -3.359,-23.671 -2.556,-1.118 -6.236,-1.118 -7.516,0.481 -3.519,5.435 -1.919,12.954 -1.439,19.509 0.48,8.957 3.2,19.354 4.318,28.949 0.642,6.077 9.435,42.543 10.238,46.539 1.438,7.998 3.996,24.471 10.554,19.993" />
      </g>
      <g
         transform="matrix(1.25,0,0,-1.25,531.95676,508.82484)"
         id="g4847">
        <path
           inkscape:connector-curvature="0"
           id="path4849"
           style="fill:#ffffff;fill-opacity:1;fill-rule:nonzero;stroke:none"
           d="m 0,0 c -0.161,-12.794 2.56,-26.229 2.398,-39.345 4.32,-0.798 17.182,0.42 17.182,-5.916 0,-5.441 -12.862,-3.838 -16.062,-4.959 1.6,-14.713 1.441,-29.908 3.521,-44.141 5.274,1.44 12.315,1.598 16.471,-0.48 2.241,-1.278 -0.16,-7.515 -2.239,-7.515 -7.197,-0.799 -14.392,-1.442 -21.271,-1.92 -4.798,0 -4.959,6.876 -4.959,8.157 -0.478,5.598 -3.677,54.217 -4.316,70.05 -0.322,7.356 -1.119,14.555 -1.761,20.953 -0.639,7.355 0,11.992 4.32,14.232 3.677,1.92 14.232,2.719 19.029,3.518 5.762,0.96 9.279,-2.398 6.88,-6.556 C 15.355,-0.32 6.396,4.318 0,0" />
      </g>
      <g
         transform="matrix(1.25,0,0,-1.25,595.04514,623.17659)"
         id="g4851">
        <path
           inkscape:connector-curvature="0"
           id="path4853"
           style="fill:#ffffff;fill-opacity:1;fill-rule:nonzero;stroke:none"
           d="m 0,0 c 0.639,-0.16 1.917,-0.318 2.719,-0.799 3.84,-1.599 4.317,-6.719 0.798,-9.115 -1.757,-1.121 -3.835,-1.921 -6.076,-1.921 -3.199,-0.16 -6.078,2.399 -6.238,5.599 -0.161,0.799 0.16,1.598 0.482,2.078 C -6.398,-1.12 -3.518,-0.318 0,0 m -10.075,79.165 c 0,6.559 0.16,12.157 0,17.754 0,2.079 0.958,3.359 2.079,4.798 1.12,1.439 2.398,2.399 4.157,2.879 0.483,0 1.119,0.16 1.6,0.16 3.679,-0.32 5.756,-2.719 5.437,-6.878 0,-1.439 -0.16,-2.878 -0.16,-4.317 -0.158,-6.877 0,-13.914 -0.319,-20.793 -0.32,-9.754 0,-19.509 0.161,-29.266 0,-2.559 0.479,-5.279 0.637,-7.837 0.482,-3.198 0.802,-6.558 1.281,-9.756 0.319,-2.878 0.8,-5.598 1.281,-8.475 0.48,-1.76 0.318,-3.518 -0.16,-5.438 C 5.437,9.117 3.038,6.716 0.317,6.398 c -3.037,-0.479 -5.594,0.8 -7.354,3.357 -0.64,0.802 -0.959,1.759 -0.959,2.88 -0.319,1.439 -0.319,2.878 -0.319,4.319 0.478,4.478 -0.322,8.794 -0.802,13.273 -0.477,4.637 -1.441,42.862 -0.958,48.938" />
      </g>
      <g
         transform="matrix(1.25,0,0,-1.25,562.01051,472.85559)"
         id="g4855">
        <path
           inkscape:connector-curvature="0"
           id="path4857"
           style="fill:#ffffff;fill-opacity:1;fill-rule:nonzero;stroke:none"
           d="m 0,0 c -4.369,-6.475 -28.482,14.219 -24.812,15.362 2.443,0.888 0.698,1.778 3.319,2.666 3.144,0.888 5.593,0.888 8.037,-0.888 C -5.59,9.902 -4.893,9.014 -3.845,8.125 -2.448,6.601 -1.401,4.696 -0.351,3.172 1.047,1.268 1.047,1.268 0,0" />
      </g>
      <g
         transform="matrix(1.25,0,0,-1.25,513.35564,468.89071)"
         id="g4859">
        <path
           inkscape:connector-curvature="0"
           id="path4861"
           style="fill:#ffffff;fill-opacity:1;fill-rule:nonzero;stroke:none"
           d="m 0,0 c 1.05,1.524 2.1,3.429 3.497,4.953 1.047,0.889 1.745,1.777 9.61,9.015 2.444,1.776 4.893,1.776 8.037,0.888 2.621,-0.888 0.873,-1.778 3.32,-2.666 C 28.135,11.047 4.021,-9.647 -0.349,-3.172 -1.396,-1.904 -1.396,-1.904 0,0" />
      </g>
    </g>
  </g>
</svg>
